<?xml version="1.0" encoding="UTF-8"?>
<svg id="Layer_2" data-name="Layer 2" xmlns="http://www.w3.org/2000/svg" viewBox="0 0 2429.15 2341.09">
  <defs>
    <style>
      .cls-1 {
        fill: #2c82f9;
      }

      .cls-1, .cls-2, .cls-3 {
        stroke-width: 0px;
      }

      .cls-2 {
        fill: #24f7dc;
      }

      .cls-3 {
        fill: #005cdd;
      }
    </style>
  </defs>
  <g id="_Слой_1" data-name="Слой 1">
    <g>
      <path class="cls-2" d="m391.15,1980.61c179.27,72.66,407.12,116.12,655.11,116.12v244.36c-305.03,0-563.82-151.03-655.11-360.48Z"/>
      <path class="cls-1" d="m355.92,1814c0-92.66,31.33-179.75,86.34-255.43,117.76-162.01,344.11-271.67,604-271.67v809.82c-247.99,0-475.85-43.46-655.11-116.12-22.88-52.35-35.22-108.37-35.22-166.61Z"/>
      <path class="cls-3" d="m0,1569.63c0-54.47,16.42-107,46.86-156.43,56.07-90.98,159.75-171.43,296.4-233.92,185.73-84.96,432.34-136.74,702.99-136.74v244.36c-259.89,0-486.25,109.66-604,271.67-55.01,75.67-86.34,162.76-86.34,255.43,0,58.24,12.35,114.26,35.22,166.61C152.63,1884,0,1735.8,0,1569.63Z"/>
      <path class="cls-3" d="m1046.26,1628.36v-341.45h4.38c259.41,0,500.81-38.94,702.29-105.9,333.53-110.85,557.8-298.31,574-512.66,65.89,81.25,102.22,170.15,102.22,263.35,0,186.83-145.94,356.41-383.49,481.51v.04c-113.02,59.47-246.75,108.91-395.4,145.32-182.5,44.69-387.43,69.79-604,69.79Z"/>
      <path class="cls-2" d="m1046.26,235.02V0h4.38c705.39,0,1277.21,288.08,1277.21,643.47,0,8.32-.31,16.64-.93,24.87-206.17-254.19-701.93-433.32-1280.66-433.32Z"/>
      <path class="cls-1" d="m1046.26,1286.9V235.02c578.73,0,1074.49,179.13,1280.66,433.32-16.2,214.36-240.47,401.81-574,512.66-201.48,66.95-442.88,105.9-702.29,105.9h-4.38Z"/>
    </g>
  </g>
</svg>