<svg version="1.2" xmlns="http://www.w3.org/2000/svg" viewBox="0 0 177 32" width="177" height="32">
	<style>
		.s0 { fill: #ffffff } 
		.s1 { fill: #24f7dc } 
		.s2 { fill: #2c82f9 } 
		.s3 { fill: #005cdd } 
	</style>
	<g id="Layer 1">
		<path class="s0" d="m55.96 17.44q1.74-0.62 2.77-2.1 1.04-1.48 1.04-3.44 0-2.86-1.88-4.54-1.87-1.7-4.95-1.7h-7.72v19.58h3.22v-7.1h4.31l3.77 7.1h3.58zm-3.27-2.1h-4.25v-6.88h4.25q1.74 0.01 2.76 0.94 1.02 0.93 1.02 2.5 0 1.57-1.02 2.51-1.02 0.93-2.76 0.93z"/>
		<path class="s0" d="m74.82 18.72q0.08-0.58 0.08-1.14-0.06-3.14-1.97-4.98-1.92-1.85-5.02-1.85c-2.07 0-3.81 0.68-5.11 2.03q-1.94 2.03-1.94 5.33 0 3.3 1.99 5.3 1.98 2 5.33 2 2.61 0 4.34-1.4 1.74-1.4 2.13-3.58h-3.03q-0.3 1.2-1.25 1.86-0.95 0.66-2.35 0.66-1.76 0-2.85-1.1-1.09-1.08-1.15-2.93v-0.2c0 0 10.8 0 10.8 0zm-9.44-4.63q1.07-0.9 2.56-0.91 1.59 0.01 2.61 0.88 1.02 0.88 1.22 2.45h-7.64q0.17-1.51 1.25-2.42z"/>
		<path class="s0" d="m86.06 10.92l-3.89 11.08-3.94-11.08h-3.24l5.28 14.32h3.7l5.28-14.32h-3.18z"/>
		<path class="s0" d="m101.55 17.44q1.74-0.62 2.77-2.1 1.04-1.48 1.04-3.44 0-2.86-1.88-4.54-1.87-1.7-4.95-1.7h-7.72v19.58h3.22v-7.1h4.31l3.77 7.1h3.58zm-3.27-2.1h-4.25v-6.88h4.25q1.74 0.01 2.76 0.94 1.02 0.93 1.02 2.5 0 1.57-1.02 2.51-1.02 0.93-2.76 0.93z"/>
		<path class="s0" d="m107.65 10.92v14.32h3.02v-14.32zm2.85-5.13q-0.53-0.52-1.31-0.52-0.78 0-1.32 0.52-0.53 0.52-0.53 1.3 0 0.78 0.53 1.3 0.53 0.52 1.32 0.52 0.78 0 1.31-0.52 0.54-0.52 0.54-1.3 0-0.78-0.54-1.3z"/>
		<path class="s0" d="m124.81 12.32q-1.59-1.57-4.17-1.57-2.96 0-4.58 2.04v-1.87h-2.96v14.32h3.02v-7.22q0-2.18 1.01-3.42 1.03-1.25 2.81-1.25 3.42 0 3.42 4.17v7.72h3.05v-7.98q0-3.38-1.6-4.95z"/>
		<path class="s0" d="m139.8 10.92v2.24q-1.57-2.41-4.7-2.4-2.96 0-4.86 2.01-1.91 2.02-1.91 5.26c0 2.16 0.63 4 1.89 5.31q1.89 1.96 4.88 1.96c2 0 3.63-0.79 4.67-2.35v1.59q0 4-4.11 4-1.59 0-2.6-0.66-1.01-0.65-1.29-1.86h-3.08q0.2 2.38 2.02 3.68 1.81 1.3 4.72 1.3 3.75 0 5.54-1.67 1.79-1.66 1.79-4.68v-13.74h-2.96zm-1.18 10.53q-1.15 1.31-3.02 1.3-1.87 0.01-3.02-1.31-1.15-1.31-1.15-3.41 0-2.1 1.15-3.42 1.15-1.31 3.02-1.31 1.87 0 3.02 1.33 1.15 1.33 1.15 3.45c0 1.42-0.38 2.51-1.15 3.37z"/>
		<path class="s0" d="m161.34 25.24h-1.62l-6.86-17.9-6.85 17.9h-1.56l7.57-19.58h1.77l7.55 19.58z"/>
		<path class="s0" d="m164.67 5.66v19.58h-1.51v-19.58z"/>
		<path class="s1" d="m16.63 24.44c2.12 0.86 4.82 1.38 7.75 1.38v2.89c-3.61 0-6.67-1.79-7.75-4.27z"/>
		<path class="s2" d="m16.21 22.47c0-1.1 0.37-2.13 1.02-3.02 1.4-1.92 4.07-3.22 7.15-3.22v9.59c-2.93 0-5.63-0.52-7.75-1.38q-0.41-0.93-0.42-1.97z"/>
		<path class="s3" d="m12 19.58q0.01-0.97 0.56-1.85c0.66-1.08 1.89-2.03 3.5-2.77 2.2-1.01 5.12-1.62 8.33-1.62v2.89c-3.08 0-5.76 1.3-7.15 3.22-0.65 0.89-1.03 1.92-1.03 3.02q0.01 1.04 0.42 1.97c-2.82-1.14-4.63-2.9-4.63-4.86z"/>
		<path class="s3" d="m24.38 20.27v-4.04h0.05c3.07 0 5.93-0.46 8.31-1.26 3.95-1.31 6.61-3.53 6.8-6.06 0.78 0.96 1.21 2.01 1.21 3.11 0 2.22-1.73 4.22-4.54 5.7-1.34 0.71-2.92 1.29-4.68 1.72-2.16 0.53-4.59 0.83-7.15 0.83z"/>
		<path class="s1" d="m24.38 3.78v-2.78h0.05c8.35 0 15.12 3.41 15.12 7.62q0 0.14-0.01 0.29c-2.44-3.01-8.31-5.13-15.15-5.13z"/>
		<path class="s2" d="m24.38 16.23v-12.45c6.85 0 12.72 2.12 15.16 5.13-0.19 2.54-2.85 4.76-6.8 6.07-2.38 0.79-5.24 1.25-8.31 1.25z"/>
	</g>
</svg>