<svg version="1.2" xmlns="http://www.w3.org/2000/svg" viewBox="0 0 177 32" width="177" height="32">
	<style>
		.s0 { fill: #25293a } 
		.s1 { fill: #24f7dc } 
		.s2 { fill: #2c82f9 } 
		.s3 { fill: #005cdd } 
	</style>
	<path class="s0" d="m54.89 17.79q1.77-0.63 2.82-2.15 1.06-1.51 1.06-3.51 0-2.92-1.91-4.64-1.92-1.73-5.06-1.73h-7.88v19.99h3.29v-7.25h4.39l3.86 7.25h3.65zm-3.34-2.14h-4.34v-7.03h4.34q1.77 0.01 2.81 0.96 1.05 0.95 1.05 2.56 0 1.6-1.05 2.55-1.04 0.96-2.81 0.96z"/>
	<path class="s0" d="m74.13 19.1q0.09-0.6 0.09-1.18-0.06-3.2-2.01-5.08-1.96-1.88-5.13-1.88c-2.11 0-3.88 0.69-5.21 2.07q-1.98 2.07-1.99 5.44 0 3.37 2.03 5.41 2.03 2.04 5.45 2.04 2.66 0 4.43-1.43 1.77-1.43 2.17-3.65h-3.08q-0.31 1.22-1.29 1.89-0.97 0.68-2.4 0.68-1.79 0-2.91-1.12-1.11-1.11-1.17-3v-0.2c0 0 11.02 0 11.02 0.01zm-9.63-4.73q1.1-0.93 2.61-0.93 1.63 0 2.67 0.9 1.04 0.9 1.24 2.5h-7.8q0.18-1.55 1.28-2.48z"/>
	<path class="s0" d="m85.61 11.13l-3.96 11.31-4.03-11.31h-3.31l5.39 14.62h3.78l5.39-14.62h-3.25z"/>
	<path class="s0" d="m101.43 17.79q1.78-0.63 2.83-2.15 1.06-1.51 1.05-3.51 0.01-2.92-1.91-4.64-1.91-1.73-5.05-1.73h-7.88v19.99h3.28v-7.25h4.4l3.85 7.25h3.66zm-3.34-2.14h-4.34v-7.03h4.34q1.77 0.01 2.81 0.96 1.04 0.95 1.04 2.56 0 1.6-1.04 2.55-1.04 0.96-2.81 0.96z"/>
	<path class="s0" d="m107.66 11.13v14.62h3.08v-14.62zm2.91-5.24q-0.54-0.53-1.34-0.53-0.8 0-1.34 0.53-0.55 0.53-0.54 1.33-0.01 0.79 0.54 1.32 0.54 0.53 1.34 0.53 0.8 0 1.34-0.53 0.55-0.53 0.55-1.32 0-0.8-0.55-1.33z"/>
	<path class="s0" d="m125.18 12.56q-1.63-1.6-4.26-1.6-3.03 0-4.68 2.08v-1.91h-3.02v14.62h3.08v-7.37q0-2.23 1.04-3.5 1.04-1.27 2.87-1.27 3.48 0 3.48 4.25v7.89h3.11v-8.15q0-3.45-1.62-5.05z"/>
	<path class="s0" d="m140.48 11.13v2.29q-1.6-2.46-4.79-2.46-3.03 0-4.97 2.05-1.95 2.06-1.95 5.37c0 2.21 0.65 4.09 1.93 5.43q1.93 2 4.98 2c2.04 0 3.7-0.8 4.77-2.4v1.62q0 4.09-4.2 4.09-1.62 0-2.65-0.67-1.03-0.67-1.32-1.91h-3.14q0.2 2.43 2.06 3.76 1.85 1.33 4.82 1.33 3.83 0 5.66-1.7 1.82-1.7 1.82-4.79v-14.02h-3.02zm-1.2 10.75q-1.18 1.33-3.09 1.33-1.91 0-3.08-1.34-1.17-1.34-1.17-3.48-0.01-2.15 1.17-3.49 1.17-1.34 3.08-1.34 1.91 0 3.09 1.36 1.17 1.35 1.17 3.52c0 1.45-0.39 2.56-1.17 3.44z"/>
	<path class="s0" d="m162.47 25.75h-1.66l-6.99-18.28-7 18.28h-1.6l7.74-19.99h1.8l7.71 19.99z"/>
	<path class="s0" d="m165.88 5.76v19.99h-1.55v-19.99z"/>
	<path class="s1" d="m14.72 24.93c2.17 0.88 4.92 1.41 7.92 1.41v2.95c-3.68 0-6.81-1.83-7.92-4.36z"/>
	<path class="s2" d="m14.3 22.92c0-1.12 0.38-2.17 1.04-3.09 1.43-1.96 4.16-3.28 7.3-3.28v9.79c-3 0-5.75-0.53-7.92-1.41q-0.42-0.95-0.42-2.01z"/>
	<path class="s3" d="m10 19.97q0.01-0.99 0.57-1.89c0.67-1.1 1.93-2.07 3.58-2.83 2.25-1.03 5.22-1.65 8.5-1.65v2.95c-3.14 0-5.88 1.32-7.3 3.28-0.67 0.92-1.05 1.97-1.05 3.09q0.01 1.06 0.43 2.01c-2.88-1.17-4.73-2.95-4.73-4.96z"/>
	<path class="s3" d="m22.64 20.67v-4.12h0.05c3.14 0 6.06-0.47 8.49-1.28 4.03-1.34 6.74-3.61 6.94-6.2 0.79 0.98 1.23 2.06 1.23 3.19 0 2.25-1.76 4.3-4.63 5.81-1.37 0.72-2.99 1.32-4.78 1.76-2.21 0.54-4.68 0.84-7.3 0.84z"/>
	<path class="s1" d="m22.64 3.84v-2.84h0.05c8.53 0 15.44 3.48 15.44 7.78q0 0.15-0.01 0.3c-2.49-3.07-8.48-5.24-15.47-5.24z"/>
	<path class="s2" d="m22.64 16.55v-12.71c6.99 0 12.99 2.17 15.48 5.24-0.2 2.59-2.91 4.85-6.94 6.19-2.43 0.81-5.35 1.28-8.49 1.28z"/>
	<g id="Layer 1">
	</g>
</svg>